<?xml version="1.0" standalone="no"?>
<!DOCTYPE svg PUBLIC "-//W3C//DTD SVG 20010904//EN"
 "http://www.w3.org/TR/2001/REC-SVG-20010904/DTD/svg10.dtd">
<svg version="1.0" xmlns="http://www.w3.org/2000/svg"
 width="835.000000pt" height="323.000000pt" viewBox="0 0 835.000000 323.000000"
 preserveAspectRatio="xMidYMid meet">

<g transform="translate(0.000000,323.000000) scale(0.100000,-0.100000)"
fill="#000000" stroke="none">
<path d="M4385 3185 c-177 -28 -362 -93 -385 -135 -21 -38 -5 -67 47 -86 160
-58 169 -69 166 -202 -4 -174 -45 -373 -172 -830 -114 -412 -201 -895 -172
-950 21 -40 85 -64 172 -64 137 0 257 36 298 88 22 28 22 33 16 214 -6 177 -6
189 19 284 61 237 356 890 590 1306 76 136 81 149 81 204 0 55 -2 60 -39 92
-42 37 -127 68 -226 84 -87 13 -296 11 -395 -5z"/>
<path d="M2375 3169 c-93 -14 -269 -66 -353 -104 -165 -77 -179 -111 -79 -192
68 -55 97 -101 97 -155 0 -49 -33 -139 -71 -195 -59 -88 -195 -237 -315 -347
-65 -61 -169 -159 -231 -220 -62 -60 -115 -108 -118 -105 -8 9 81 393 121 519
49 156 111 293 177 393 66 98 74 124 53 165 -32 61 -136 76 -346 48 -350 -48
-814 -210 -904 -317 -28 -33 -35 -89 -13 -107 7 -6 56 -16 107 -22 52 -6 105
-18 119 -27 24 -15 24 -17 18 -127 -16 -285 -117 -768 -257 -1231 -28 -93
-117 -367 -197 -608 -142 -425 -145 -438 -128 -457 32 -35 90 -45 260 -44 292
1 527 72 577 175 11 21 24 90 33 175 23 224 66 420 170 769 24 83 49 170 56
195 l12 45 17 -110 c21 -135 45 -207 115 -350 197 -404 531 -703 888 -795 116
-29 216 -40 375 -40 343 0 574 58 952 240 270 130 436 191 660 244 599 140
1187 122 1634 -50 197 -76 346 -163 546 -320 213 -166 359 -204 551 -144 149
46 235 147 208 244 -31 113 -264 225 -799 384 -285 85 -499 127 -815 159 -243
25 -808 25 -1030 0 -410 -46 -645 -93 -1005 -202 -430 -131 -626 -144 -876
-60 -204 68 -377 174 -551 339 -157 149 -264 292 -377 508 -68 129 -86 190
-67 227 6 11 116 90 244 175 403 268 620 438 843 660 225 226 323 388 299 496
-16 71 -106 136 -227 165 -69 16 -273 18 -373 4z"/>
<path d="M5314 2490 c-295 -41 -522 -236 -711 -615 -115 -229 -164 -401 -166
-585 -1 -230 77 -320 279 -320 207 0 420 97 595 272 l66 66 -5 -88 c-6 -112 2
-152 39 -195 47 -54 101 -69 222 -63 137 7 214 36 240 91 20 40 19 52 -18 186
-18 68 -9 135 41 306 87 292 138 432 216 583 103 202 104 243 6 266 -36 8
-149 -15 -223 -47 l-59 -25 -46 39 c-114 96 -316 151 -476 129z m201 -445 c31
-30 32 -70 5 -156 -53 -171 -261 -438 -392 -503 -65 -32 -92 -33 -123 -1 -77
77 30 357 203 534 130 131 252 182 307 126z"/>
<path d="M3081 2440 c-214 -57 -428 -224 -621 -487 -188 -258 -287 -501 -297
-738 -9 -197 25 -294 124 -351 42 -25 60 -29 150 -32 165 -7 312 39 471 145
81 54 207 168 266 242 15 18 29 32 31 29 2 -2 -2 -28 -10 -58 -19 -69 -19
-161 -1 -203 17 -41 64 -81 112 -97 121 -40 397 47 468 149 43 60 41 114 -10
216 -38 78 -39 82 -38 185 1 126 38 290 139 610 64 204 85 287 85 341 0 91
-128 93 -321 5 l-74 -33 -50 33 c-27 18 -77 40 -110 49 -81 21 -222 19 -314
-5z m232 -425 c57 -56 -6 -251 -147 -455 -112 -163 -283 -303 -351 -286 -45
11 -65 44 -65 106 0 148 113 356 276 509 124 116 245 169 287 126z"/>
<path d="M6714 2380 c-252 -66 -486 -293 -652 -632 -151 -309 -171 -641 -46
-786 49 -58 145 -103 232 -110 184 -13 377 68 548 231 39 37 73 67 75 67 2 0
3 -43 1 -95 -7 -202 73 -342 241 -425 113 -55 203 -73 367 -74 206 0 364 36
495 115 170 101 286 281 329 509 19 98 22 295 6 393 -15 94 -52 208 -72 221
-27 16 -37 -1 -65 -106 -60 -231 -187 -395 -396 -513 -59 -33 -73 -46 -75 -68
-4 -36 10 -52 64 -76 74 -33 68 -91 -16 -149 -47 -32 -106 -45 -173 -39 -100
9 -184 76 -236 187 -30 66 -40 206 -21 302 36 186 176 500 321 721 65 98 75
141 40 176 -46 46 -156 51 -277 13 l-60 -19 -45 40 c-56 50 -161 103 -241 122
-89 21 -256 18 -344 -5z m286 -457 c43 -54 13 -152 -96 -316 -116 -174 -295
-327 -381 -327 -40 0 -73 42 -73 94 0 177 191 465 361 546 87 41 158 42 189 3z"/>
</g>
</svg>
